HIERARCHY
ROOT newVegas:Hips
{
	OFFSET 0.000000 96.479958 0.000000
	CHANNELS 6 Xposition Yposition Zposition Xrotation Yrotation Zrotation
	JOINT newVegas:Pelvis
	{
		OFFSET 0.000000 0.000000 0.000000
		CHANNELS 3 Xrotation Yrotation Zrotation
		JOINT newVegas:LeftUpLeg
		{
			OFFSET 18.735201 -5.666702 -4.541200
			CHANNELS 3 Xrotation Yrotation Zrotation
			JOINT newVegas:LeftLeg
			{
				OFFSET -0.021200 -31.938179 0.493100
				CHANNELS 3 Xrotation Yrotation Zrotation
				JOINT newVegas:LeftFoot
				{
					OFFSET 0.021200 -31.938179 -4.336299
					CHANNELS 3 Xrotation Yrotation Zrotation
					JOINT newVegas:LeftToeBase
					{
						OFFSET 0.943001 -26.722000 15.023500
						CHANNELS 3 Xrotation Yrotation Zrotation
						End Site
						{
							OFFSET 0.000000 30.670183 0.000000
						}
					}
				}
				JOINT newVegas:Left_PantLeg
				{
					OFFSET 0.663870 -9.044666 -1.108900
					CHANNELS 3 Xrotation Yrotation Zrotation
					End Site
					{
						OFFSET 1.415995 20.635357 0.000000
					}
				}
			}
		}
		JOINT newVegas:RightUpLeg
		{
			OFFSET -18.735201 -5.666702 -4.541200
			CHANNELS 3 Xrotation Yrotation Zrotation
			JOINT newVegas:RightLeg
			{
				OFFSET 0.018946 -31.938133 0.493100
				CHANNELS 3 Xrotation Yrotation Zrotation
				JOINT newVegas:RightFoot
				{
					OFFSET -0.018946 -31.938126 -4.336299
					CHANNELS 3 Xrotation Yrotation Zrotation
					JOINT newVegas:RightToeBase
					{
						OFFSET -0.943001 -26.722004 15.023500
						CHANNELS 3 Xrotation Yrotation Zrotation
						End Site
						{
							OFFSET 0.000000 30.670187 0.000000
						}
					}
				}
				JOINT newVegas:Right_PantLeg
				{
					OFFSET -0.661674 -9.044716 -1.108900
					CHANNELS 3 Xrotation Yrotation Zrotation
					End Site
					{
						OFFSET -1.415958 20.635269 0.000000
					}
				}
			}
		}
	}
	JOINT newVegas:Spine
	{
		OFFSET 0.000000 10.199997 -0.299500
		CHANNELS 3 Xrotation Yrotation Zrotation
		JOINT newVegas:Spine1
		{
			OFFSET 0.000000 11.900002 -1.516600
			CHANNELS 3 Xrotation Yrotation Zrotation
			JOINT newVegas:Spine2
			{
				OFFSET 0.000000 13.600006 -2.842500
				CHANNELS 3 Xrotation Yrotation Zrotation
				JOINT newVegas:Neck
				{
					OFFSET 0.000000 9.624100 -2.890100
					CHANNELS 3 Xrotation Yrotation Zrotation
					JOINT newVegas:Head
					{
						OFFSET 0.000000 14.068802 -1.351900
						CHANNELS 3 Xrotation Yrotation Zrotation
						JOINT newVegas:Hair_Back
						{
							OFFSET 0.000000 3.231903 -17.524799
							CHANNELS 3 Xrotation Yrotation Zrotation
							End Site
							{
								OFFSET 0.000000 19.849884 0.000000
							}
						}
						JOINT newVegas:Hair_Front
						{
							OFFSET 0.000000 31.260406 4.573800
							CHANNELS 3 Xrotation Yrotation Zrotation
							JOINT newVegas:Hair_Front1
							{
								OFFSET 0.000000 2.284103 11.993300
								CHANNELS 3 Xrotation Yrotation Zrotation
								JOINT newVegas:Hair_Front2
								{
									OFFSET 0.000000 2.284103 11.993300
									CHANNELS 3 Xrotation Yrotation Zrotation
									End Site
									{
										OFFSET 0.000000 12.208862 0.000000
									}
								}
							}
						}
						JOINT newVegas:Jowel
						{
							OFFSET 0.000000 -7.458206 6.864100
							CHANNELS 3 Xrotation Yrotation Zrotation
							End Site
							{
								OFFSET 0.000000 19.849884 0.000000
							}
						}
					}
				}
				JOINT newVegas:LeftShoulder
				{
					OFFSET 15.263000 10.923401 -0.547700
					CHANNELS 3 Xrotation Yrotation Zrotation
					JOINT newVegas:LeftArm
					{
						OFFSET 25.438599 -2.830597 -13.032500
						CHANNELS 3 Xrotation Yrotation Zrotation
						JOINT newVegas:LeftForeArm
						{
							OFFSET 29.960503 0.000000 0.000000
							CHANNELS 3 Xrotation Yrotation Zrotation
							JOINT newVegas:LeftHand
							{
								OFFSET 27.849251 0.000000 0.000000
								CHANNELS 3 Xrotation Yrotation Zrotation
								JOINT newVegas:LeftHandThumb1
								{
									OFFSET 4.487587 -3.305161 6.305391
									CHANNELS 3 Xrotation Yrotation Zrotation
									JOINT newVegas:LeftHandThumb2
									{
										OFFSET 5.480453 -3.164139 3.164143
										CHANNELS 3 Xrotation Yrotation Zrotation
										JOINT newVegas:LeftHandThumb3
										{
											OFFSET 5.159721 -2.978973 2.978967
											CHANNELS 3 Xrotation Yrotation Zrotation
											End Site
											{
												OFFSET 2.494507 5.926697 1.738678
											}
										}
									}
								}
								JOINT newVegas:LeftHandIndex1
								{
									OFFSET 18.578728 -0.527832 5.208049
									CHANNELS 3 Xrotation Yrotation Zrotation
									JOINT newVegas:LeftHandIndex2
									{
										OFFSET 3.192009 0.000000 0.000000
										CHANNELS 3 Xrotation Yrotation Zrotation
										JOINT newVegas:LeftHandIndex3
										{
											OFFSET 3.835129 0.000000 0.000000
											CHANNELS 3 Xrotation Yrotation Zrotation
											End Site
											{
												OFFSET -0.034599 3.816971 0.371180
											}
										}
									}
								}
								JOINT newVegas:LeftHandMiddle1
								{
									OFFSET 18.476105 0.000000 0.000000
									CHANNELS 3 Xrotation Yrotation Zrotation
									JOINT newVegas:LeftHandMiddle2
									{
										OFFSET 3.324875 0.000000 0.000000
										CHANNELS 3 Xrotation Yrotation Zrotation
										JOINT newVegas:LeftHandMiddle3
										{
											OFFSET 4.596550 0.000000 0.000000
											CHANNELS 3 Xrotation Yrotation Zrotation
											End Site
											{
												OFFSET 0.057701 4.578827 0.399218
											}
										}
									}
								}
								JOINT newVegas:LeftHandRing1
								{
									OFFSET 17.732719 0.121887 -4.201567
									CHANNELS 3 Xrotation Yrotation Zrotation
									JOINT newVegas:LeftHandRing2
									{
										OFFSET 2.733170 0.000000 0.000000
										CHANNELS 3 Xrotation Yrotation Zrotation
										JOINT newVegas:LeftHandRing3
										{
											OFFSET 3.178268 0.000000 0.000000
											CHANNELS 3 Xrotation Yrotation Zrotation
											End Site
											{
												OFFSET 0.119102 3.170624 0.185394
											}
										}
									}
								}
								JOINT newVegas:LeftHandPinky1
								{
									OFFSET 15.989624 -0.606689 -7.535461
									CHANNELS 3 Xrotation Yrotation Zrotation
									JOINT newVegas:LeftHandPinky2
									{
										OFFSET 2.538986 0.000000 0.000000
										CHANNELS 3 Xrotation Yrotation Zrotation
										JOINT newVegas:LeftHandPinky3
										{
											OFFSET 2.593102 0.000000 0.000000
											CHANNELS 3 Xrotation Yrotation Zrotation
											End Site
											{
												OFFSET -0.150902 2.584198 0.152708
											}
										}
									}
								}
							}
							JOINT newVegas:Left_Sleeve
							{
								OFFSET 0.267448 -0.649796 0.577675
								CHANNELS 3 Xrotation Yrotation Zrotation
								End Site
								{
									OFFSET 0.000000 15.991241 0.000000
								}
							}
							JOINT newVegas:Left_CapeC
							{
								OFFSET 15.715958 -8.608795 -6.935905
								CHANNELS 3 Xrotation Yrotation Zrotation
								JOINT newVegas:Left_CapeC1
								{
									OFFSET 0.000000 -8.688499 0.000000
									CHANNELS 3 Xrotation Yrotation Zrotation
									End Site
									{
										OFFSET 0.000000 8.688499 0.000000
									}
								}
							}
						}
						JOINT newVegas:Left_CapeB
						{
							OFFSET 26.118385 -8.608795 -7.079235
							CHANNELS 3 Xrotation Yrotation Zrotation
							JOINT newVegas:Left_CapeB1
							{
								OFFSET 0.000000 -8.688499 0.000000
								CHANNELS 3 Xrotation Yrotation Zrotation
								End Site
								{
									OFFSET 0.000000 8.688499 0.000000
								}
							}
						}
						JOINT newVegas:Left_CapeA
						{
							OFFSET 5.115639 -8.608795 -10.395809
							CHANNELS 3 Xrotation Yrotation Zrotation
							JOINT newVegas:Left_CapeA1
							{
								OFFSET 0.000000 -8.688499 0.000000
								CHANNELS 3 Xrotation Yrotation Zrotation
								End Site
								{
									OFFSET 0.000000 8.688499 0.000000
								}
							}
						}
					}
				}
				JOINT newVegas:RightShoulder
				{
					OFFSET -15.263000 10.923401 -0.547700
					CHANNELS 3 Xrotation Yrotation Zrotation
					JOINT newVegas:RightArm
					{
						OFFSET -25.438599 -2.830597 -13.032500
						CHANNELS 3 Xrotation Yrotation Zrotation
						JOINT newVegas:RightForeArm
						{
							OFFSET -29.960503 0.000000 0.000000
							CHANNELS 3 Xrotation Yrotation Zrotation
							JOINT newVegas:RightHand
							{
								OFFSET -27.849251 0.000000 0.000000
								CHANNELS 3 Xrotation Yrotation Zrotation
								JOINT newVegas:RightHandThumb1
								{
									OFFSET -4.487587 -3.305161 6.305391
									CHANNELS 3 Xrotation Yrotation Zrotation
									JOINT newVegas:RightHandThumb2
									{
										OFFSET -5.480453 -3.164139 3.164143
										CHANNELS 3 Xrotation Yrotation Zrotation
										JOINT newVegas:RightHandThumb3
										{
											OFFSET -5.159721 -2.978973 2.978967
											CHANNELS 3 Xrotation Yrotation Zrotation
											End Site
											{
												OFFSET -2.494507 5.926697 1.738678
											}
										}
									}
								}
								JOINT newVegas:RightHandIndex1
								{
									OFFSET -18.578728 -0.527832 5.208049
									CHANNELS 3 Xrotation Yrotation Zrotation
									JOINT newVegas:RightHandIndex2
									{
										OFFSET -3.192009 0.000000 0.000000
										CHANNELS 3 Xrotation Yrotation Zrotation
										JOINT newVegas:RightHandIndex3
										{
											OFFSET -3.835129 0.000000 0.000000
											CHANNELS 3 Xrotation Yrotation Zrotation
											End Site
											{
												OFFSET 0.034599 3.816971 0.371180
											}
										}
									}
								}
								JOINT newVegas:RightHandMiddle1
								{
									OFFSET -18.476105 0.000000 0.000000
									CHANNELS 3 Xrotation Yrotation Zrotation
									JOINT newVegas:RightHandMiddle2
									{
										OFFSET -3.324875 0.000000 0.000000
										CHANNELS 3 Xrotation Yrotation Zrotation
										JOINT newVegas:RightHandMiddle3
										{
											OFFSET -4.596550 0.000000 0.000000
											CHANNELS 3 Xrotation Yrotation Zrotation
											End Site
											{
												OFFSET -0.057701 4.578827 0.399218
											}
										}
									}
								}
								JOINT newVegas:RightHandRing1
								{
									OFFSET -17.732719 0.121887 -4.201567
									CHANNELS 3 Xrotation Yrotation Zrotation
									JOINT newVegas:RightHandRing2
									{
										OFFSET -2.733170 0.000000 0.000000
										CHANNELS 3 Xrotation Yrotation Zrotation
										JOINT newVegas:RightHandRing3
										{
											OFFSET -3.178268 0.000000 0.000000
											CHANNELS 3 Xrotation Yrotation Zrotation
											End Site
											{
												OFFSET -0.119102 3.170624 0.185394
											}
										}
									}
								}
								JOINT newVegas:RightHandPinky1
								{
									OFFSET -15.989624 -0.606689 -7.535461
									CHANNELS 3 Xrotation Yrotation Zrotation
									JOINT newVegas:RightHandPinky2
									{
										OFFSET -2.538986 0.000000 0.000000
										CHANNELS 3 Xrotation Yrotation Zrotation
										JOINT newVegas:RightHandPinky3
										{
											OFFSET -2.593102 0.000000 0.000000
											CHANNELS 3 Xrotation Yrotation Zrotation
											End Site
											{
												OFFSET 0.150902 2.584198 0.152708
											}
										}
									}
								}
							}
							JOINT newVegas:Right_CapeC
							{
								OFFSET -15.715958 -8.608795 -6.935905
								CHANNELS 3 Xrotation Yrotation Zrotation
								JOINT newVegas:Right_CapeC1
								{
									OFFSET 0.000000 -8.688499 0.000000
									CHANNELS 3 Xrotation Yrotation Zrotation
									End Site
									{
										OFFSET 0.000000 8.688499 0.000000
									}
								}
							}
							JOINT newVegas:Right_Sleeve
							{
								OFFSET -0.267448 -0.649994 0.577675
								CHANNELS 3 Xrotation Yrotation Zrotation
								End Site
								{
									OFFSET 0.000000 15.991302 0.000000
								}
							}
						}
						JOINT newVegas:Right_CapeA
						{
							OFFSET -5.115540 -8.608795 -10.395824
							CHANNELS 3 Xrotation Yrotation Zrotation
							JOINT newVegas:Right_CapeA1
							{
								OFFSET 0.000000 -8.688499 0.000000
								CHANNELS 3 Xrotation Yrotation Zrotation
								End Site
								{
									OFFSET 0.000000 8.688499 0.000000
								}
							}
						}
						JOINT newVegas:Right_CapeB
						{
							OFFSET -26.118187 -8.608795 -7.079266
							CHANNELS 3 Xrotation Yrotation Zrotation
							JOINT newVegas:Right_CapeB1
							{
								OFFSET 0.000000 -8.688499 0.000000
								CHANNELS 3 Xrotation Yrotation Zrotation
								End Site
								{
									OFFSET 0.000000 8.688499 0.000000
								}
							}
						}
					}
				}
				JOINT newVegas:Left_Collar
				{
					OFFSET 18.625099 8.655502 8.828100
					CHANNELS 3 Xrotation Yrotation Zrotation
					JOINT newVegas:Left_Collar1
					{
						OFFSET 14.783401 10.540405 -1.259500
						CHANNELS 3 Xrotation Yrotation Zrotation
						End Site
						{
							OFFSET 0.000000 18.199875 0.000000
						}
					}
				}
				JOINT newVegas:Collar_Back
				{
					OFFSET 0.000000 15.630707 -20.132601
					CHANNELS 3 Xrotation Yrotation Zrotation
					End Site
					{
						OFFSET 0.000000 22.523010 0.000000
					}
				}
				JOINT newVegas:Left_Peck
				{
					OFFSET 17.239599 -5.132599 25.482599
					CHANNELS 3 Xrotation Yrotation Zrotation
					End Site
					{
						OFFSET 0.000000 22.523010 0.000000
					}
				}
				JOINT newVegas:Right_Peck
				{
					OFFSET -17.239599 -5.132202 25.482599
					CHANNELS 3 Xrotation Yrotation Zrotation
					End Site
					{
						OFFSET 0.000000 22.523010 0.000000
					}
				}
				JOINT newVegas:Right_Collar
				{
					OFFSET -18.625099 8.655792 8.828100
					CHANNELS 3 Xrotation Yrotation Zrotation
					JOINT newVegas:Right_Collar1
					{
						OFFSET -14.783401 10.539993 -1.259500
						CHANNELS 3 Xrotation Yrotation Zrotation
						End Site
						{
							OFFSET 0.000000 18.199631 0.000000
						}
					}
				}
			}
		}
		JOINT newVegas:Belly
		{
			OFFSET 0.000000 -6.540398 9.014299
			CHANNELS 3 Xrotation Yrotation Zrotation
			End Site
			{
				OFFSET 0.000000 11.566666 0.000000
			}
		}
	}
	JOINT newVegas:ElvisFacialAnim_Joint
	{
		OFFSET 1.000000 -95.330101 -8.825800
		CHANNELS 3 Xrotation Yrotation Zrotation
		End Site
		{
			OFFSET 0.000000 35.315800 0.000000
		}
	}
}
MOTION
Frames: 4
Frame Time: 0.033333
-2.681004 80.373825 2.552225 -5.398395 -46.091052 -0.138902 -0.000000 -0.000001 -0.000001 -36.910865 3.269461 21.343899 62.508334 -8.152309 4.188290 -22.911146 -6.711837 -18.589823 0.000000 0.000002 -0.000000 0.000002 -0.000001 -0.000000 -20.977714 -8.981014 -32.624723 63.053670 -6.514473 -7.419374 -31.031940 -9.960287 27.205267 -0.000000 0.000000 -0.000000 0.000002 -0.000000 0.000001 9.462105 7.035685 -1.694598 2.187714 0.989895 -0.915631 2.202828 0.982774 -0.894152 2.650037 3.452582 -0.064170 2.650059 3.452581 -0.064177 0.000000 0.000000 0.000000 2.650118 3.452577 -0.064174 2.650047 3.452606 -0.064175 -0.000000 -0.000001 0.000000 0.000000 0.000000 -0.000000 1.117178 3.546349 -8.633310 -53.487017 4.935511 -51.502997 0.000436 -106.358053 0.000415 1.988601 -7.706146 -15.869263 -6.141216 -11.690802 -6.761687 9.914085 42.595519 3.409876 -0.000001 -0.000000 -0.000005 0.255313 3.378225 -45.814348 5.654095 5.847759 -88.067455 0.000001 -0.000001 -0.000000 -0.461467 3.841579 -39.722679 6.450732 5.820344 -95.892871 -0.000001 -0.000001 0.000000 0.469731 4.966808 -39.799441 8.181040 5.368606 -113.503018 0.000000 0.000001 0.000001 -3.762419 9.063717 -45.253828 5.342512 5.828973 -85.005317 0.000003 -0.000007 -0.000001 0.000000 -0.000001 0.000000 0.000000 -0.000001 0.000000 0.000000 -0.000000 0.000000 -0.000001 -0.000005 0.000000 -0.000001 -0.000006 0.000000 -0.000001 -0.000005 0.000000 -0.000001 -0.000006 0.000001 3.036127 13.027198 -5.371408 -48.713725 27.172830 83.457071 0.000700 105.988342 -0.000705 -8.345375 17.548105 8.775713 -7.341098 13.749659 7.412325 9.855736 -44.489096 -3.903265 -0.000001 -0.000004 -0.000001 -0.124373 -2.384796 45.108871 4.500588 -4.654540 88.071157 0.000000 0.000002 -0.000002 -0.761618 -2.932899 39.031061 5.133873 -4.632746 95.881656 0.000001 -0.000001 0.000001 0.154766 -4.068799 39.122671 6.509732 -4.273583 113.462898 0.000001 0.000001 -0.000001 -4.198860 -8.025526 44.637772 4.252901 -4.639608 85.014811 -0.000001 0.000001 0.000001 -0.000001 -0.000001 0.000001 -0.000000 -0.000001 0.000000 -0.000001 -0.000001 0.000001 0.000000 -0.000001 0.000002 0.000000 0.000000 0.000000 0.000000 -0.000001 0.000002 0.000000 -0.000000 0.000001 0.000000 0.000002 -0.000000 0.000000 0.000002 -0.000000 0.000000 0.000002 -0.000000 0.000000 0.000002 -0.000000 0.000000 0.000002 -0.000000 0.000000 0.000002 -0.000000 0.000000 0.000002 -0.000000 -0.000000 0.000001 -0.000000 -0.000000 -0.000001 -0.000001 
-2.748169 80.686386 2.480519 -6.335686 -46.128939 -0.601287 -0.000000 -0.000000 0.000000 -35.723877 3.595219 20.524117 61.737294 -7.509980 4.814388 -22.784468 -6.767756 -18.694028 -0.000000 0.000001 -0.000000 0.000001 -0.000006 0.000001 -21.253746 -9.142172 -32.819872 63.833760 -6.481141 -7.276767 -31.120995 -9.414089 25.435638 -0.000000 0.000001 0.000000 -0.000001 -0.000000 0.000002 9.232015 6.059677 -1.860868 3.541744 0.743396 -1.533092 3.555171 0.735104 -1.514468 2.649279 3.171116 0.155024 2.649295 3.171115 0.155051 0.000002 0.000000 -0.000001 2.649289 3.171203 0.155007 2.649367 3.171062 0.155033 -0.000000 0.000000 -0.000000 0.000002 0.000000 -0.000000 0.574794 2.671073 -6.196538 -49.012140 5.924680 -52.735593 0.000044 -108.112646 0.000063 0.170222 -7.623003 -14.051910 -6.141217 -11.690804 -6.761684 9.914090 42.595515 3.409869 -0.000001 0.000004 -0.000005 0.255313 3.378227 -45.814348 5.654094 5.847760 -88.067455 0.000002 0.000000 -0.000000 -0.461466 3.841580 -39.722673 6.450733 5.820341 -95.892864 0.000001 0.000002 0.000000 0.469730 4.966808 -39.799444 8.181035 5.368606 -113.503004 -0.000000 -0.000001 0.000000 -3.762422 9.063717 -45.253825 5.342515 5.828975 -85.005317 0.000000 0.000000 0.000001 0.000001 0.000000 -0.000001 0.000001 0.000000 -0.000001 0.000001 0.000001 -0.000001 -0.000001 0.000003 -0.000002 -0.000001 0.000002 -0.000002 -0.000001 0.000003 -0.000002 -0.000001 0.000001 -0.000001 4.100469 14.502104 -3.997681 -49.906430 28.795876 79.513442 -0.000345 106.171848 0.000315 -11.086467 16.896949 10.175554 -7.341098 13.749657 7.412327 9.855736 -44.489100 -3.903272 0.000003 -0.000001 -0.000004 -0.124373 -2.384794 45.108864 4.500592 -4.654542 88.071157 -0.000001 0.000001 -0.000002 -0.761622 -2.932898 39.031058 5.133872 -4.632745 95.881649 0.000002 0.000002 0.000003 0.154765 -4.068802 39.122671 6.509738 -4.273584 113.462898 -0.000001 -0.000003 -0.000000 -4.198867 -8.025528 44.637769 4.252899 -4.639613 85.014818 -0.000001 0.000002 -0.000000 -0.000001 0.000004 -0.000002 -0.000001 0.000003 -0.000003 -0.000001 0.000004 -0.000000 -0.000001 0.000003 -0.000000 -0.000001 0.000004 0.000000 -0.000001 0.000003 -0.000000 -0.000001 0.000004 0.000001 0.000001 -0.000002 0.000000 0.000001 -0.000002 0.000000 0.000001 -0.000002 0.000000 0.000001 -0.000002 0.000000 0.000001 -0.000002 0.000000 0.000001 -0.000002 0.000000 0.000001 -0.000002 0.000000 -0.000000 0.000001 -0.000000 -0.000000 -0.000000 0.000000 
-2.658594 80.991554 2.359725 -7.317281 -44.539008 -1.352267 0.000000 -0.000001 -0.000000 -35.606883 2.893224 18.504796 61.622349 -6.609429 6.521386 -22.333185 -6.971774 -18.567437 0.000000 0.000000 0.000000 -0.000000 -0.000001 0.000001 -19.674379 -10.289528 -33.394683 63.298915 -5.029673 -6.190901 -30.698634 -10.327835 24.482077 0.000000 0.000000 0.000000 0.000001 0.000002 -0.000000 9.082802 4.834386 -1.733142 5.223258 0.262283 -1.829475 5.235521 0.247954 -1.814715 2.709735 2.791442 0.478109 2.709728 2.791450 0.478105 0.000003 0.000001 -0.000000 2.709662 2.791446 0.478110 2.709807 2.791451 0.478101 -0.000000 0.000001 -0.000001 0.000003 0.000001 -0.000000 -0.079216 1.614352 -2.661940 -43.138092 5.780083 -56.425955 -0.000182 -108.650900 -0.000192 -3.098545 -9.007478 -11.195459 -6.141214 -11.690804 -6.761684 9.914092 42.595515 3.409872 0.000000 0.000003 -0.000002 0.255312 3.378227 -45.814344 5.654093 5.847760 -88.067455 -0.000001 -0.000002 0.000001 -0.461467 3.841578 -39.722673 6.450733 5.820342 -95.892871 0.000000 -0.000000 -0.000001 0.469730 4.966808 -39.799444 8.181038 5.368606 -113.503004 -0.000001 0.000004 0.000002 -3.762419 9.063713 -45.253821 5.342516 5.828976 -85.005317 -0.000000 -0.000003 0.000001 0.000001 0.000006 0.000002 0.000001 0.000006 0.000002 0.000001 0.000006 0.000003 0.000000 -0.000003 0.000003 0.000000 -0.000003 0.000002 0.000000 -0.000003 0.000003 0.000000 -0.000003 0.000001 5.349287 16.138146 -3.365586 -51.407320 30.292750 74.140160 0.000200 106.401356 -0.000208 -13.851164 15.617426 12.835479 -7.341098 13.749660 7.412323 9.855739 -44.489096 -3.903276 0.000002 0.000002 0.000001 -0.124370 -2.384792 45.108871 4.500590 -4.654543 88.071157 -0.000000 -0.000001 -0.000000 -0.761619 -2.932900 39.031061 5.133871 -4.632747 95.881649 0.000000 0.000000 0.000000 0.154765 -4.068804 39.122671 6.509733 -4.273585 113.462898 0.000000 -0.000001 -0.000000 -4.198862 -8.025528 44.637772 4.252894 -4.639612 85.014805 0.000000 0.000002 0.000001 -0.000001 -0.000000 0.000000 -0.000001 -0.000004 0.000001 -0.000001 -0.000001 -0.000001 -0.000001 0.000002 -0.000000 -0.000001 0.000003 -0.000000 -0.000001 0.000002 -0.000000 -0.000001 0.000003 -0.000001 0.000002 0.000001 -0.000001 0.000002 0.000001 -0.000001 0.000002 0.000001 -0.000001 0.000002 0.000001 -0.000001 0.000002 0.000001 -0.000001 0.000002 0.000001 -0.000001 0.000002 0.000001 -0.000001 0.000000 -0.000002 0.000000 0.000000 -0.000001 -0.000000 
-2.227113 81.491173 2.323009 -7.179728 -40.856768 -1.683835 0.000000 0.000001 -0.000000 -37.231750 1.060361 15.040317 61.387520 -5.334227 9.048302 -20.896812 -7.493245 -18.044588 -0.000000 -0.000003 -0.000000 0.000001 0.000000 -0.000000 -16.519014 -12.620211 -33.897317 60.470315 -3.346549 -3.965927 -28.857771 -12.247841 24.658921 0.000000 0.000000 -0.000000 -0.000000 0.000000 0.000000 8.846187 3.919122 -0.974781 6.961212 0.194018 -1.391276 6.971992 0.163621 -1.376979 2.661789 2.216116 0.823161 2.661791 2.216112 0.823160 0.000000 -0.000001 0.000001 2.661774 2.216123 0.823161 2.661783 2.216116 0.823159 0.000000 -0.000000 -0.000001 0.000000 -0.000001 0.000001 -0.722526 0.215631 1.755341 -35.737223 1.552952 -63.390316 -0.000416 -107.002911 -0.000409 -8.560834 -12.156175 -7.413993 -6.141219 -11.690800 -6.761685 9.914091 42.595522 3.409875 -0.000001 -0.000001 -0.000006 0.255312 3.378228 -45.814348 5.654090 5.847759 -88.067455 0.000000 0.000001 0.000000 -0.461469 3.841583 -39.722679 6.450731 5.820343 -95.892871 0.000000 0.000001 -0.000000 0.469728 4.966807 -39.799441 8.181027 5.368607 -113.503004 -0.000001 0.000001 0.000001 -3.762423 9.063718 -45.253825 5.342510 5.828972 -85.005317 -0.000000 -0.000003 -0.000000 -0.000000 0.000004 0.000001 -0.000000 0.000004 0.000001 -0.000001 0.000005 0.000001 0.000002 -0.000002 0.000001 0.000003 -0.000003 0.000002 0.000002 -0.000002 0.000001 0.000002 -0.000003 -0.000000 6.729241 17.047013 -3.667614 -52.311541 30.886488 66.596988 0.000254 107.609487 -0.000244 -16.219070 12.940217 17.767977 -7.341100 13.749655 7.412328 9.855733 -44.489100 -3.903274 0.000001 -0.000006 -0.000001 -0.124372 -2.384796 45.108864 4.500585 -4.654544 88.071157 -0.000000 -0.000001 0.000000 -0.761619 -2.932899 39.031058 5.133875 -4.632746 95.881649 0.000001 -0.000001 -0.000000 0.154766 -4.068804 39.122675 6.509737 -4.273588 113.462904 -0.000000 -0.000001 0.000000 -4.198866 -8.025526 44.637772 4.252898 -4.639610 85.014811 0.000000 0.000007 -0.000001 0.000001 0.000002 -0.000001 0.000001 -0.000000 -0.000001 0.000001 0.000001 -0.000001 0.000000 0.000002 -0.000003 0.000000 0.000003 -0.000002 0.000000 0.000002 -0.000003 0.000000 0.000003 -0.000000 -0.000001 -0.000001 0.000000 -0.000001 -0.000001 0.000000 -0.000001 -0.000001 0.000000 -0.000001 -0.000001 0.000000 -0.000001 -0.000001 0.000000 -0.000001 -0.000001 0.000000 -0.000001 -0.000001 0.000000 -0.000000 0.000002 0.000000 0.000000 0.000001 -0.000000 
